<svg width="573" height="595" viewBox="0 0 573 595" fill="none" xmlns="http://www.w3.org/2000/svg">
<g filter="url(#filter0_i_1103_1414)">
<path d="M70.903 542.538C70.903 558.765 70.903 566.878 75.7904 575.171C79.3637 581.234 88.1574 588.392 94.8197 590.661C103.932 593.764 110.075 592.491 122.36 589.945C145.138 585.224 172.923 575.875 200.253 557.596C250.258 524.149 264.02 491.611 267.607 479.326C268.574 476.012 266.155 484.296 266.998 480.395C267.185 479.532 268.643 470.782 268.747 469.905C269.215 465.942 268.977 471.094 269.072 469.033C270.764 432.55 276.72 216.463 176.215 280.011C156.84 292.263 140.14 300.965 126.115 307.145C99.1408 319.03 85.6539 324.972 81.3718 329.057C75.9963 334.184 75.4383 335.039 72.9139 342.026C70.903 347.591 70.903 358.329 70.903 379.803V542.538Z" fill="url(#paint0_linear_1103_1414)"/>
<path d="M70.903 542.538C70.903 558.765 70.903 566.878 75.7904 575.171C79.3637 581.234 88.1574 588.392 94.8197 590.661C103.932 593.764 110.075 592.491 122.36 589.945C145.138 585.224 172.923 575.875 200.253 557.596C250.258 524.149 264.02 491.611 267.607 479.326C268.574 476.012 266.155 484.296 266.998 480.395C267.185 479.532 268.643 470.782 268.747 469.905C269.215 465.942 268.977 471.094 269.072 469.033C270.764 432.55 276.72 216.463 176.215 280.011C156.84 292.263 140.14 300.965 126.115 307.145C99.1408 319.03 85.6539 324.972 81.3718 329.057C75.9963 334.184 75.4383 335.039 72.9139 342.026C70.903 347.591 70.903 358.329 70.903 379.803V542.538Z" fill="url(#paint1_radial_1103_1414)" fill-opacity="0.2"/>
</g>
<mask id="mask0_1103_1414" style="mask-type:alpha" maskUnits="userSpaceOnUse" x="70" y="224" width="200" height="369">
<path d="M70.903 542.538C70.903 558.765 70.903 566.878 75.7904 575.171C79.3637 581.235 88.1574 588.393 94.8197 590.661C103.932 593.764 110.075 592.491 122.36 589.945C145.138 585.224 172.923 575.875 200.253 557.596C263.698 515.16 268.799 496.954 268.799 428.48C268.799 159.505 285.864 210.681 176.215 280.012C156.84 292.263 140.14 300.966 126.115 307.145C99.1408 319.03 85.6539 324.973 81.3718 329.057C75.9963 334.184 75.4383 335.04 72.9139 342.026C70.903 347.591 70.903 358.329 70.903 379.803V542.538Z" fill="url(#paint2_linear_1103_1414)"/>
</mask>
<g mask="url(#mask0_1103_1414)">
<g filter="url(#filter1_d_1103_1414)">
<path d="M0.052002 78.3785C0.052002 53.2737 0.052002 40.7213 6.60265 30.5227C11.8247 22.3926 22.2027 14.9959 31.5918 12.7123C43.3696 9.8478 54.0167 13.5229 75.3111 20.873C98.8426 28.9954 126.356 39.975 155.555 54.5745C240.428 97.0108 268.799 144.268 268.799 204.168C268.799 295.103 268.799 438.821 268.799 438.821C268.799 438.821 238.913 368.725 144.948 324.311C108.592 307.127 78.6785 296.924 55.6642 290.873C31.0386 284.398 18.7258 281.16 13.3603 277.071C7.52448 272.623 5.45983 269.946 2.64238 263.171C0.052002 256.942 0.052002 246.509 0.052002 225.643V78.3785Z" fill="url(#paint3_linear_1103_1414)" fill-opacity="0.01" shape-rendering="crispEdges"/>
</g>
</g>
<g filter="url(#filter2_i_1103_1414)">
<path d="M0.262573 78.3785C0.262573 53.2737 0.262573 40.7213 6.81323 30.5227C12.0353 22.3926 22.4133 14.9959 31.8023 12.7123C43.5802 9.8478 54.2273 13.5229 75.5216 20.873C99.0532 28.9954 126.566 39.975 155.766 54.5745C240.638 97.0108 269.01 144.268 269.01 204.168C269.01 295.103 269.01 438.821 269.01 438.821C269.01 438.821 239.123 368.725 145.159 324.311C108.803 307.127 78.8891 296.924 55.8748 290.873C31.2492 284.398 18.9364 281.16 13.5709 277.071C7.73505 272.623 5.6704 269.946 2.85295 263.171C0.262573 256.942 0.262573 246.509 0.262573 225.643V78.3785Z" fill="url(#paint4_linear_1103_1414)"/>
</g>
<g filter="url(#filter3_i_1103_1414)">
<path d="M501.659 542.538C501.659 558.765 501.659 566.878 496.772 575.171C493.198 581.234 484.404 588.392 477.742 590.661C468.63 593.764 462.487 592.491 450.202 589.945C427.424 585.224 399.639 575.875 372.309 557.596C308.863 515.159 303.762 496.954 303.762 428.48C303.762 159.505 286.698 210.681 396.347 280.011C415.722 292.263 432.422 300.965 446.447 307.145C473.421 319.03 486.908 324.972 491.19 329.057C496.566 334.184 497.124 335.039 499.648 342.026C501.659 347.591 501.659 358.329 501.659 379.803V542.538Z" fill="url(#paint5_linear_1103_1414)"/>
<path d="M501.659 542.538C501.659 558.765 501.659 566.878 496.772 575.171C493.198 581.234 484.404 588.392 477.742 590.661C468.63 593.764 462.487 592.491 450.202 589.945C427.424 585.224 399.639 575.875 372.309 557.596C308.863 515.159 303.762 496.954 303.762 428.48C303.762 159.505 286.698 210.681 396.347 280.011C415.722 292.263 432.422 300.965 446.447 307.145C473.421 319.03 486.908 324.972 491.19 329.057C496.566 334.184 497.124 335.039 499.648 342.026C501.659 347.591 501.659 358.329 501.659 379.803V542.538Z" fill="url(#paint6_radial_1103_1414)"/>
</g>
<mask id="mask1_1103_1414" style="mask-type:alpha" maskUnits="userSpaceOnUse" x="302" y="224" width="200" height="369">
<path d="M501.659 542.538C501.659 558.765 501.659 566.878 496.772 575.171C493.198 581.235 484.404 588.393 477.742 590.661C468.63 593.764 462.487 592.491 450.202 589.945C427.424 585.224 399.639 575.875 372.309 557.596C308.863 515.16 303.762 496.954 303.762 428.48C303.762 159.505 286.698 210.681 396.347 280.012C415.722 292.263 432.422 300.966 446.447 307.145C473.421 319.03 486.908 324.973 491.19 329.057C496.566 334.184 497.124 335.04 499.648 342.026C501.659 347.591 501.659 358.329 501.659 379.803V542.538Z" fill="url(#paint7_linear_1103_1414)"/>
</mask>
<g mask="url(#mask1_1103_1414)">
<g filter="url(#filter4_d_1103_1414)">
<path d="M572.51 78.3785C572.51 53.2737 572.51 40.7213 565.959 30.5227C560.737 22.3926 550.359 14.9959 540.97 12.7123C529.192 9.8478 518.545 13.5229 497.251 20.873C473.719 28.9954 446.206 39.975 417.007 54.5745C332.134 97.0108 303.762 144.268 303.762 204.168C303.762 295.103 303.762 438.821 303.762 438.821C303.762 438.821 333.649 368.725 427.614 324.311C463.97 307.127 493.883 296.924 516.898 290.873C541.523 284.398 553.836 281.16 559.202 277.071C565.037 272.623 567.102 269.946 569.92 263.171C572.51 256.942 572.51 246.509 572.51 225.643V78.3785Z" fill="url(#paint8_linear_1103_1414)"/>
</g>
</g>
<g filter="url(#filter5_i_1103_1414)">
<path d="M572.51 78.3785C572.51 53.2737 572.51 40.7213 565.959 30.5227C560.737 22.3926 550.359 14.9959 540.97 12.7123C529.192 9.8478 518.545 13.5229 497.251 20.873C473.719 28.9954 446.206 39.975 417.007 54.5745C332.134 97.0108 303.762 144.268 303.762 204.168C303.762 295.103 303.762 438.821 303.762 438.821C303.762 438.821 333.649 368.725 427.614 324.311C463.97 307.127 493.883 296.924 516.898 290.873C541.523 284.398 553.836 281.16 559.202 277.071C565.037 272.623 567.102 269.946 569.92 263.171C572.51 256.942 572.51 246.509 572.51 225.643V78.3785Z" fill="url(#paint9_linear_1103_1414)"/>
</g>
<defs>
<filter id="filter0_i_1103_1414" x="69.903" y="267.389" width="199.858" height="325.095" filterUnits="userSpaceOnUse" color-interpolation-filters="sRGB">
<feFlood flood-opacity="0" result="BackgroundImageFix"/>
<feBlend mode="normal" in="SourceGraphic" in2="BackgroundImageFix" result="shape"/>
<feColorMatrix in="SourceAlpha" type="matrix" values="0 0 0 0 0 0 0 0 0 0 0 0 0 0 0 0 0 0 127 0" result="hardAlpha"/>
<feOffset dx="-1" dy="-1"/>
<feGaussianBlur stdDeviation="2.5"/>
<feComposite in2="hardAlpha" operator="arithmetic" k2="-1" k3="1"/>
<feColorMatrix type="matrix" values="0 0 0 0 1 0 0 0 0 1 0 0 0 0 1 0 0 0 0.2 0"/>
<feBlend mode="normal" in2="shape" result="effect1_innerShadow_1103_1414"/>
</filter>
<filter id="filter1_d_1103_1414" x="-100.57" y="-33.3158" width="439.955" height="598.29" filterUnits="userSpaceOnUse" color-interpolation-filters="sRGB">
<feFlood flood-opacity="0" result="BackgroundImageFix"/>
<feColorMatrix in="SourceAlpha" type="matrix" values="0 0 0 0 0 0 0 0 0 0 0 0 0 0 0 0 0 0 127 0" result="hardAlpha"/>
<feOffset dx="-15.0182" dy="40.5491"/>
<feGaussianBlur stdDeviation="42.8019"/>
<feComposite in2="hardAlpha" operator="out"/>
<feColorMatrix type="matrix" values="0 0 0 0 0 0 0 0 0 0 0 0 0 0 0 0 0 0 0.3 0"/>
<feBlend mode="normal" in2="BackgroundImageFix" result="effect1_dropShadow_1103_1414"/>
<feBlend mode="normal" in="SourceGraphic" in2="effect1_dropShadow_1103_1414" result="shape"/>
</filter>
<filter id="filter2_i_1103_1414" x="0.262573" y="11.7388" width="270.747" height="428.082" filterUnits="userSpaceOnUse" color-interpolation-filters="sRGB">
<feFlood flood-opacity="0" result="BackgroundImageFix"/>
<feBlend mode="normal" in="SourceGraphic" in2="BackgroundImageFix" result="shape"/>
<feColorMatrix in="SourceAlpha" type="matrix" values="0 0 0 0 0 0 0 0 0 0 0 0 0 0 0 0 0 0 127 0" result="hardAlpha"/>
<feOffset dx="2" dy="1"/>
<feGaussianBlur stdDeviation="2.5"/>
<feComposite in2="hardAlpha" operator="arithmetic" k2="-1" k3="1"/>
<feColorMatrix type="matrix" values="0 0 0 0 1 0 0 0 0 1 0 0 0 0 1 0 0 0 0.2 0"/>
<feBlend mode="normal" in2="shape" result="effect1_innerShadow_1103_1414"/>
</filter>
<filter id="filter3_i_1103_1414" x="301.801" y="223.633" width="199.858" height="368.852" filterUnits="userSpaceOnUse" color-interpolation-filters="sRGB">
<feFlood flood-opacity="0" result="BackgroundImageFix"/>
<feBlend mode="normal" in="SourceGraphic" in2="BackgroundImageFix" result="shape"/>
<feColorMatrix in="SourceAlpha" type="matrix" values="0 0 0 0 0 0 0 0 0 0 0 0 0 0 0 0 0 0 127 0" result="hardAlpha"/>
<feOffset dx="-1" dy="-1"/>
<feGaussianBlur stdDeviation="2.5"/>
<feComposite in2="hardAlpha" operator="arithmetic" k2="-1" k3="1"/>
<feColorMatrix type="matrix" values="0 0 0 0 1 0 0 0 0 1 0 0 0 0 1 0 0 0 0.25 0"/>
<feBlend mode="normal" in2="shape" result="effect1_innerShadow_1103_1414"/>
</filter>
<filter id="filter4_d_1103_1414" x="203.141" y="-33.3158" width="439.955" height="598.29" filterUnits="userSpaceOnUse" color-interpolation-filters="sRGB">
<feFlood flood-opacity="0" result="BackgroundImageFix"/>
<feColorMatrix in="SourceAlpha" type="matrix" values="0 0 0 0 0 0 0 0 0 0 0 0 0 0 0 0 0 0 127 0" result="hardAlpha"/>
<feOffset dx="-15.0182" dy="40.5491"/>
<feGaussianBlur stdDeviation="42.8019"/>
<feComposite in2="hardAlpha" operator="out"/>
<feColorMatrix type="matrix" values="0 0 0 0 0 0 0 0 0 0 0 0 0 0 0 0 0 0 0.3 0"/>
<feBlend mode="normal" in2="BackgroundImageFix" result="effect1_dropShadow_1103_1414"/>
<feBlend mode="normal" in="SourceGraphic" in2="effect1_dropShadow_1103_1414" result="shape"/>
</filter>
<filter id="filter5_i_1103_1414" x="302.762" y="10.7388" width="269.747" height="428.082" filterUnits="userSpaceOnUse" color-interpolation-filters="sRGB">
<feFlood flood-opacity="0" result="BackgroundImageFix"/>
<feBlend mode="normal" in="SourceGraphic" in2="BackgroundImageFix" result="shape"/>
<feColorMatrix in="SourceAlpha" type="matrix" values="0 0 0 0 0 0 0 0 0 0 0 0 0 0 0 0 0 0 127 0" result="hardAlpha"/>
<feOffset dx="-1" dy="-1"/>
<feGaussianBlur stdDeviation="2.5"/>
<feComposite in2="hardAlpha" operator="arithmetic" k2="-1" k3="1"/>
<feColorMatrix type="matrix" values="0 0 0 0 1 0 0 0 0 1 0 0 0 0 1 0 0 0 0.45 0"/>
<feBlend mode="normal" in2="shape" result="effect1_innerShadow_1103_1414"/>
</filter>
<linearGradient id="paint0_linear_1103_1414" x1="66.7766" y1="473.403" x2="268.238" y2="473.403" gradientUnits="userSpaceOnUse">
<stop stop-color="#8C9DF0"/>
<stop offset="1" stop-color="#6673AD"/>
</linearGradient>
<radialGradient id="paint1_radial_1103_1414" cx="0" cy="0" r="1" gradientUnits="userSpaceOnUse" gradientTransform="translate(91.7804 585.39) rotate(-90) scale(218.006 218.007)">
<stop stop-color="#8C9EF2"/>
<stop offset="1" stop-color="#555E8A"/>
</radialGradient>
<linearGradient id="paint2_linear_1103_1414" x1="66.7766" y1="473.403" x2="268.238" y2="473.403" gradientUnits="userSpaceOnUse">
<stop stop-color="#EC7064"/>
<stop offset="1" stop-color="#A24C52"/>
</linearGradient>
<linearGradient id="paint3_linear_1103_1414" x1="-1.44982" y1="130.919" x2="268.049" y2="130.919" gradientUnits="userSpaceOnUse">
<stop stop-color="#EE9A94"/>
<stop offset="1" stop-color="#F5E2D6"/>
</linearGradient>
<linearGradient id="paint4_linear_1103_1414" x1="-1.23925" y1="130.919" x2="268.259" y2="130.919" gradientUnits="userSpaceOnUse">
<stop stop-color="#7271AA"/>
<stop offset="1" stop-color="#B07694"/>
</linearGradient>
<linearGradient id="paint5_linear_1103_1414" x1="505.785" y1="473.403" x2="304.324" y2="473.403" gradientUnits="userSpaceOnUse">
<stop stop-color="#EC7064"/>
<stop offset="1" stop-color="#A24C52"/>
</linearGradient>
<radialGradient id="paint6_radial_1103_1414" cx="0" cy="0" r="1" gradientUnits="userSpaceOnUse" gradientTransform="translate(475.884 584.368) rotate(-126.05) scale(470.309 414.684)">
<stop stop-color="#FF8074"/>
<stop offset="1" stop-color="#8E4445" stop-opacity="0"/>
</radialGradient>
<linearGradient id="paint7_linear_1103_1414" x1="505.785" y1="473.403" x2="304.324" y2="473.403" gradientUnits="userSpaceOnUse">
<stop stop-color="#EC7064"/>
<stop offset="1" stop-color="#A24C52"/>
</linearGradient>
<linearGradient id="paint8_linear_1103_1414" x1="574.012" y1="130.919" x2="304.513" y2="130.919" gradientUnits="userSpaceOnUse">
<stop stop-color="#EE9A94"/>
<stop offset="1" stop-color="#F5E2D6"/>
</linearGradient>
<linearGradient id="paint9_linear_1103_1414" x1="574.012" y1="130.919" x2="304.513" y2="130.919" gradientUnits="userSpaceOnUse">
<stop stop-color="#EE9A94"/>
<stop offset="1" stop-color="#F5E2D6"/>
</linearGradient>
</defs>
</svg>
